<svg xmlns="http://www.w3.org/2000/svg" version="1.1" xmlns:xlink="http://www.w3.org/1999/xlink" xmlns:svgjs="http://svgjs.dev/svgjs" width="1000" height="1000"><g clip-path="url(#SvgjsClipPath2164)"><rect width="1000" height="1000" fill="#b3b3b3"></rect><g transform="matrix(33.333333333333336,0,0,33.333333333333336,100,100)"><svg xmlns="http://www.w3.org/2000/svg" version="1.1" xmlns:xlink="http://www.w3.org/1999/xlink" xmlns:svgjs="http://svgjs.dev/svgjs" width="24" height="24"><svg viewBox="0 0 24 24" version="1.1" id="svg1" sodipodi:docname="favicon.svg" inkscape:version="1.3.2 (091e20e, 2023-11-25, custom)" xmlns:inkscape="http://www.inkscape.org/namespaces/inkscape" xmlns:sodipodi="http://sodipodi.sourceforge.net/DTD/sodipodi-0.dtd" xmlns="http://www.w3.org/2000/svg" xmlns:svg="http://www.w3.org/2000/svg">
  <defs id="defs1"><clipPath id="SvgjsClipPath2164"><rect width="1000" height="1000" x="0" y="0" rx="350" ry="350"></rect></clipPath></defs>
  <sodipodi:namedview id="namedview1" pagecolor="#505050" bordercolor="#eeeeee" borderopacity="1" inkscape:showpageshadow="0" inkscape:pageopacity="0" inkscape:pagecheckerboard="0" inkscape:deskcolor="#505050" inkscape:zoom="38.125" inkscape:cx="11.908197" inkscape:cy="15.291803" inkscape:window-width="3840" inkscape:window-height="2054" inkscape:window-x="-11" inkscape:window-y="-11" inkscape:window-maximized="1" inkscape:current-layer="svg1"></sodipodi:namedview>
  <g id="g2" transform="matrix(3.7795276,0,0,3.7795276,-195,-231)">
    <path d="m 55.5625,65.0875 0.336021,1.177396 0.02117,0.145521 c 0,0.291041 -0.238125,0.529166 -0.529166,0.529166 h -1.243546 c -0.292251,0 -0.529167,-0.236915 -0.529167,-0.529166 l 0.02117,-0.145521 0.336021,-1.177396 z" id="path1-8" style="display: inline; fill: rgb(255, 255, 255); stroke-width: 0.264583px; --darkreader-inline-fill: var(--darkreader-text-ffffff, #e8e6e3);" sodipodi:nodetypes="cccsscccc" data-darkreader-inline-fill=""></path>
    <path d="m 54.76875,61.647917 c 1.461253,0 2.645833,1.18458 2.645833,2.645833 0,0.292251 -0.236915,0.529167 -0.529166,0.529167 h -4.233334 c -0.292251,0 -0.529166,-0.236916 -0.529166,-0.529167 0,-1.461253 1.18458,-2.645833 2.645833,-2.645833" id="path2" style="display: inline; fill: rgb(255, 255, 255); stroke-width: 0.264583px; --darkreader-inline-fill: var(--darkreader-text-ffffff, #e8e6e3);" sodipodi:nodetypes="cssssc" data-darkreader-inline-fill=""></path>
    <path d="m 54.76875,61.647917 c 1.461253,0 2.645833,1.18458 2.645833,2.645833 0,0.292251 -0.236915,0.529167 -0.529166,0.529167 h -4.233334 c -0.292251,0 -0.529166,-0.236916 -0.529166,-0.529167 0,-1.461253 1.18458,-2.645833 2.645833,-2.645833 m 0,1.5875 c 0.292251,0 0.529167,-0.236916 0.529167,-0.529167 0,-0.292251 -0.236916,-0.529167 -0.529167,-0.529167 -0.292251,0 -0.529167,0.236916 -0.529167,0.529167 0,0.292251 0.236916,0.529167 0.529167,0.529167 m 1.322917,1.058333 c 0.292251,0 0.529166,-0.236916 0.529166,-0.529167 0,-0.29225 -0.236916,-0.529166 -0.529166,-0.529166 -0.292251,0 -0.529167,0.236915 -0.529167,0.529166 0,0.292251 0.236916,0.529167 0.529167,0.529167 m -2.645834,0 c 0.292251,0 0.529167,-0.236916 0.529167,-0.529167 0,-0.292251 -0.236916,-0.529166 -0.529167,-0.529166 -0.29225,0 -0.529166,0.236916 -0.529166,0.529166 0,0.292251 0.236915,0.529167 0.529166,0.529167" id="path1" style="display: inline; fill: rgb(255, 0, 0); stroke-width: 0.264583px; --darkreader-inline-fill: #ff1a1a;" sodipodi:nodetypes="cssssccsssccsssccsssc" data-darkreader-inline-fill=""></path>
  </g>
</svg></svg></g></g></svg>